<?xml version="1.0" encoding="UTF-8" standalone="no"?>
<!-- Generator: Adobe Illustrator 19.0.0, SVG Export Plug-In . SVG Version: 6.00 Build 0)  -->

<svg
   xmlns:dc="http://purl.org/dc/elements/1.1/"
   xmlns:cc="http://creativecommons.org/ns#"
   xmlns:rdf="http://www.w3.org/1999/02/22-rdf-syntax-ns#"
   xmlns:svg="http://www.w3.org/2000/svg"
   xmlns="http://www.w3.org/2000/svg"
   xmlns:sodipodi="http://sodipodi.sourceforge.net/DTD/sodipodi-0.dtd"
   xmlns:inkscape="http://www.inkscape.org/namespaces/inkscape"
   version="1.1"
   id="Capa_1"
   x="0px"
   y="0px"
   viewBox="0 0 512 512"
   style="enable-background:new 0 0 512 512;"
   xml:space="preserve"
   sodipodi:docname="email.svg"
   inkscape:version="0.92.3 (2405546, 2018-03-11)"><metadata
   id="metadata55"><rdf:RDF><cc:Work
       rdf:about=""><dc:format>image/svg+xml</dc:format><dc:type
         rdf:resource="http://purl.org/dc/dcmitype/StillImage" /></cc:Work></rdf:RDF></metadata><defs
   id="defs53" /><sodipodi:namedview
   pagecolor="#ffffff"
   bordercolor="#666666"
   borderopacity="1"
   objecttolerance="10"
   gridtolerance="10"
   guidetolerance="10"
   inkscape:pageopacity="0"
   inkscape:pageshadow="2"
   inkscape:window-width="1920"
   inkscape:window-height="1019"
   id="namedview51"
   showgrid="false"
   inkscape:zoom="0.4609375"
   inkscape:cx="256"
   inkscape:cy="256"
   inkscape:window-x="1280"
   inkscape:window-y="0"
   inkscape:window-maximized="1"
   inkscape:current-layer="Capa_1" />
<g
   id="g6"
   style="fill:#ac9d93">
	<g
   id="g4"
   style="fill:#ac9d93">
		<path
   d="M509.314,210.164l-27.229-22.837c-0.659-0.552-1.387-0.965-2.148-1.255V47.593c0-4.15-3.364-7.515-7.515-7.515H306.061    c-0.383-0.567-0.845-1.093-1.395-1.555L260.829,1.757c-2.792-2.343-6.865-2.343-9.658,0L206.62,39.122    c-0.351,0.294-0.661,0.616-0.944,0.956H39.578c-4.151,0-7.515,3.365-7.515,7.515v137.932L2.686,210.164    C1.002,211.582,0,213.721,0,215.922v288.564C0,508.636,3.364,512,7.515,512h496.941c4.098,0,7.545-3.41,7.545-7.515V215.922    C512,213.719,510.996,211.584,509.314,210.164z M479.938,205.141l11.516,9.659l-11.516,6.686V205.141z M256,17.323l27.132,22.755    h-54.264L256,17.323z M47.092,55.108h417.816v175.105L256,351.515L47.092,230.213V55.108z M32.063,205.141v16.345l-11.516-6.687    L32.063,205.141z M496.971,491.433l-140.36-81.499c-3.541-2.059-8.216-0.816-10.272,2.725s-0.815,8.216,2.726,10.272    l127.514,74.04H15.03V228.975l19.941,11.579c0.538,0.419,1.131,0.768,1.771,1.029l279.833,162.483    c3.782,2.198,8.757,0.609,10.594-3.347c1.613-3.473,0.26-7.73-3.048-9.651l-53.155-30.864l226.005-131.229V491.433z"
   id="path2"
   style="fill:#ac9d93" />
	</g>
</g>
<g
   id="g12"
   style="fill:#ac9d93">
	<g
   id="g10"
   style="fill:#ac9d93">
		<path
   d="M348.326,93.102C324.375,71.832,291.588,60.118,256,60.118c-72.652,0-131.757,59.106-131.757,131.757    S183.348,323.633,256,323.633h12.023c4.151,0,7.515-3.365,7.515-7.515v-24.047c0-4.15-3.364-7.515-7.515-7.515H256    c-51.105,0-92.681-41.576-92.681-92.681S204.895,99.194,256,99.194c54.57,0,92.681,34.816,92.681,84.665    c0,30.814-16.411,43.947-33.065,49.336V123.742c0-4.15-3.364-7.515-7.515-7.515h-24.047c-4.151,0-7.515,3.365-7.515,7.515v4.642    c-6.538-2.729-13.477-4.141-20.54-4.141c-32.873,0-59.616,30.339-59.616,67.632s26.743,67.632,59.616,67.632    c7.064,0,14.002-1.412,20.54-4.141V256c0,10.773,8.765,19.538,19.538,19.538c4.75,0,29.605-0.723,52.437-14.993    c17.902-11.189,39.242-33.576,39.242-76.686C387.758,147.916,373.753,115.685,348.326,93.102z M340.551,247.8    c-19.356,12.097-40.443,12.709-44.473,12.709c-2.486,0-4.509-2.023-4.509-4.509v-13.507c0-6.045-7.118-9.644-11.986-6.039    c-7.09,5.249-15.245,8.024-23.583,8.024c-24.585,0-44.587-23.597-44.587-52.603s20.002-52.603,44.587-52.603    c8.338,0,16.493,2.775,23.583,8.025c4.868,3.604,11.986,0.005,11.986-6.04v-10.001h9.018v111.537c0,4.612,4.31,8.217,8.855,7.394    c16.317-2.958,54.268-15.342,54.268-66.329c0-28.376-10.796-53.937-30.402-71.974C313.878,94.01,286.423,84.165,256,84.165    c-59.391,0-107.71,48.318-107.71,107.71s48.319,107.71,107.71,107.71h4.509v9.018H256c-64.364,0-116.728-52.364-116.728-116.728    S191.637,75.147,256,75.147c31.904,0,61.147,10.367,82.345,29.193c22.172,19.691,34.383,47.932,34.383,79.519    C372.728,220.085,355.23,238.626,340.551,247.8z"
   id="path8"
   style="fill:#ac9d93" />
	</g>
</g>
<g
   id="g18"
   style="fill:#ac9d93">
	<g
   id="g16"
   style="fill:#ac9d93">
		<path
   d="M256,148.29c-19.613,0-35.569,19.552-35.569,43.585S236.387,235.46,256,235.46c19.613,0,35.569-19.552,35.569-43.585    S275.614,148.29,256,148.29z M256,220.431c-11.134,0-20.54-13.077-20.54-28.556s9.406-28.556,20.54-28.556    s20.54,13.077,20.54,28.556S267.134,220.431,256,220.431z"
   id="path14"
   style="fill:#ac9d93" />
	</g>
</g>
<g
   id="g20">
</g>
<g
   id="g22">
</g>
<g
   id="g24">
</g>
<g
   id="g26">
</g>
<g
   id="g28">
</g>
<g
   id="g30">
</g>
<g
   id="g32">
</g>
<g
   id="g34">
</g>
<g
   id="g36">
</g>
<g
   id="g38">
</g>
<g
   id="g40">
</g>
<g
   id="g42">
</g>
<g
   id="g44">
</g>
<g
   id="g46">
</g>
<g
   id="g48">
</g>
</svg>