<?xml version="1.0" encoding="UTF-8" standalone="no"?>
<!-- Generator: Adobe Illustrator 16.0.0, SVG Export Plug-In . SVG Version: 6.00 Build 0)  -->

<svg
   xmlns:dc="http://purl.org/dc/elements/1.1/"
   xmlns:cc="http://creativecommons.org/ns#"
   xmlns:rdf="http://www.w3.org/1999/02/22-rdf-syntax-ns#"
   xmlns:svg="http://www.w3.org/2000/svg"
   xmlns="http://www.w3.org/2000/svg"
   xmlns:sodipodi="http://sodipodi.sourceforge.net/DTD/sodipodi-0.dtd"
   xmlns:inkscape="http://www.inkscape.org/namespaces/inkscape"
   version="1.1"
   id="Capa_1"
   x="0px"
   y="0px"
   width="438.536px"
   height="438.536px"
   viewBox="0 0 438.536 438.536"
   style="enable-background:new 0 0 438.536 438.536;"
   xml:space="preserve"
   sodipodi:docname="telephone-symbol-button.svg"
   inkscape:version="0.92.3 (2405546, 2018-03-11)"><metadata
   id="metadata41"><rdf:RDF><cc:Work
       rdf:about=""><dc:format>image/svg+xml</dc:format><dc:type
         rdf:resource="http://purl.org/dc/dcmitype/StillImage" /></cc:Work></rdf:RDF></metadata><defs
   id="defs39" /><sodipodi:namedview
   pagecolor="#ffffff"
   bordercolor="#666666"
   borderopacity="1"
   objecttolerance="10"
   gridtolerance="10"
   guidetolerance="10"
   inkscape:pageopacity="0"
   inkscape:pageshadow="2"
   inkscape:window-width="1920"
   inkscape:window-height="1019"
   id="namedview37"
   showgrid="false"
   inkscape:zoom="0.53815421"
   inkscape:cx="219.26801"
   inkscape:cy="219.26801"
   inkscape:window-x="1280"
   inkscape:window-y="0"
   inkscape:window-maximized="1"
   inkscape:current-layer="Capa_1" />
<g
   id="g4"
   style="fill:#ac9d93">
	<path
   d="M414.41,24.123C398.333,8.042,378.963,0,356.315,0H82.228C59.58,0,40.21,8.042,24.126,24.123   C8.045,40.207,0.003,59.576,0.003,82.225v274.084c0,22.647,8.042,42.018,24.123,58.102c16.084,16.084,35.454,24.126,58.102,24.126   h274.084c22.648,0,42.018-8.042,58.095-24.126c16.084-16.084,24.126-35.454,24.126-58.102V82.225   C438.532,59.576,430.49,40.204,414.41,24.123z M359.159,332.874c-3.997,8.754-12.99,16.371-26.977,22.846   c-13.99,6.475-26.413,9.712-37.265,9.712c-3.046,0-6.283-0.235-9.708-0.711c-3.426-0.479-6.324-0.952-8.703-1.428   c-2.378-0.476-5.523-1.331-9.421-2.57c-3.905-1.234-6.715-2.189-8.422-2.854c-1.718-0.664-4.856-1.854-9.421-3.566   c-4.569-1.718-7.427-2.765-8.562-3.138c-31.215-11.427-61.721-32.028-91.507-61.814c-29.786-29.793-50.391-60.292-61.812-91.502   c-0.378-1.143-1.425-3.999-3.14-8.565c-1.712-4.565-2.905-7.708-3.571-9.419c-0.662-1.713-1.615-4.521-2.853-8.42   c-1.237-3.903-2.091-7.041-2.568-9.423c-0.478-2.376-0.95-5.277-1.427-8.704c-0.476-3.427-0.713-6.667-0.713-9.71   c0-10.85,3.237-23.269,9.71-37.259c6.472-13.988,14.084-22.981,22.841-26.979c10.088-4.189,19.7-6.283,28.837-6.283   c2.091,0,3.616,0.192,4.565,0.572c0.953,0.385,2.524,2.094,4.714,5.14c2.19,3.046,4.568,6.899,7.137,11.563   c2.57,4.665,5.092,9.186,7.566,13.562c2.474,4.377,4.854,8.705,7.139,12.991c2.284,4.279,3.711,6.995,4.281,8.133   c0.571,0.957,1.809,2.762,3.711,5.429c1.902,2.663,3.333,5.039,4.283,7.135c0.95,2.094,1.427,4.093,1.427,5.996   c0,2.859-1.953,6.331-5.854,10.42c-3.903,4.093-8.186,7.854-12.85,11.281s-8.945,7.092-12.847,10.994   c-3.899,3.899-5.852,7.087-5.852,9.562c0,1.333,0.333,2.902,1,4.71c0.666,1.812,1.285,3.287,1.856,4.427   c0.571,1.141,1.477,2.76,2.712,4.856c1.237,2.096,2.048,3.427,2.426,3.999c10.467,18.843,22.508,35.07,36.114,48.681   c13.612,13.613,29.836,25.648,48.682,36.117c0.567,0.384,1.902,1.191,4.004,2.43c2.091,1.232,3.713,2.136,4.853,2.707   c1.143,0.571,2.614,1.191,4.425,1.852c1.811,0.664,3.381,0.999,4.719,0.999c3.036,0,7.225-3.138,12.56-9.418   c5.328-6.286,10.756-12.518,16.276-18.705c5.516-6.181,9.985-9.274,13.418-9.274c1.902,0,3.897,0.473,5.999,1.424   c2.095,0.951,4.469,2.382,7.132,4.284c2.669,1.91,4.476,3.142,5.428,3.721l15.125,8.271c10.089,5.332,18.511,10.041,25.27,14.134   s10.424,6.899,10.996,8.419c0.379,0.951,0.564,2.478,0.564,4.572C365.449,313.199,363.354,322.812,359.159,332.874z"
   id="path2"
   style="fill:#ac9d93" />
</g>
<g
   id="g6">
</g>
<g
   id="g8">
</g>
<g
   id="g10">
</g>
<g
   id="g12">
</g>
<g
   id="g14">
</g>
<g
   id="g16">
</g>
<g
   id="g18">
</g>
<g
   id="g20">
</g>
<g
   id="g22">
</g>
<g
   id="g24">
</g>
<g
   id="g26">
</g>
<g
   id="g28">
</g>
<g
   id="g30">
</g>
<g
   id="g32">
</g>
<g
   id="g34">
</g>
</svg>